<mxfile host="app.diagrams.net" modified="2023-08-21T03:06:51.439Z" agent="Mozilla/5.0 (Macintosh; Intel Mac OS X 10_15_7) AppleWebKit/605.1.15 (KHTML, like Gecko) Version/16.1 Safari/605.1.15" etag="SoghVYgTPU-UdDzFullh" version="21.6.8" type="github">
  <diagram name="Page-1" id="Kw93NjZ9MJ_fNS9YaNBz">
    <mxGraphModel dx="1194" dy="-462" grid="1" gridSize="10" guides="1" tooltips="1" connect="1" arrows="1" fold="1" page="1" pageScale="1" pageWidth="827" pageHeight="1169" math="0" shadow="0">
      <root>
        <mxCell id="0" />
        <mxCell id="1" parent="0" />
        <mxCell id="sKy68efztaYP0OvI4nIl-1" value="Producer" style="strokeWidth=2;html=1;shape=mxgraph.flowchart.start_1;whiteSpace=wrap;fillColor=#0050ef;strokeColor=default;fontColor=#ffffff;fontSize=17;rounded=0;" vertex="1" parent="1">
          <mxGeometry x="54" y="1335" width="130" height="70" as="geometry" />
        </mxCell>
        <mxCell id="sKy68efztaYP0OvI4nIl-2" value="Topic Exchange" style="strokeWidth=2;html=1;shape=mxgraph.flowchart.decision;whiteSpace=wrap;fillColor=#a0522d;strokeColor=#6D1F00;fontColor=#ffffff;fontSize=16;rounded=0;" vertex="1" parent="1">
          <mxGeometry x="254" y="1320" width="100" height="100" as="geometry" />
        </mxCell>
        <mxCell id="sKy68efztaYP0OvI4nIl-3" value="queue" style="strokeWidth=2;html=1;shape=mxgraph.flowchart.direct_data;whiteSpace=wrap;fillColor=#1ba1e2;fontColor=#ffffff;strokeColor=#006EAF;fontSize=17;rounded=0;" vertex="1" parent="1">
          <mxGeometry x="454" y="1195" width="100" height="60" as="geometry" />
        </mxCell>
        <mxCell id="sKy68efztaYP0OvI4nIl-4" value="queue" style="strokeWidth=2;html=1;shape=mxgraph.flowchart.direct_data;whiteSpace=wrap;fillColor=#1ba1e2;fontColor=#ffffff;strokeColor=#006EAF;fontSize=17;rounded=0;" vertex="1" parent="1">
          <mxGeometry x="454" y="1335" width="100" height="60" as="geometry" />
        </mxCell>
        <mxCell id="sKy68efztaYP0OvI4nIl-5" value="queue" style="strokeWidth=2;html=1;shape=mxgraph.flowchart.direct_data;whiteSpace=wrap;fillColor=#1ba1e2;fontColor=#ffffff;strokeColor=#006EAF;fontSize=17;rounded=0;" vertex="1" parent="1">
          <mxGeometry x="454" y="1475" width="100" height="60" as="geometry" />
        </mxCell>
        <mxCell id="sKy68efztaYP0OvI4nIl-6" value="Payments" style="strokeWidth=2;html=1;shape=mxgraph.flowchart.start_1;whiteSpace=wrap;fillColor=#0050ef;strokeColor=default;fontColor=#ffffff;fontSize=17;rounded=0;" vertex="1" parent="1">
          <mxGeometry x="644" y="1190" width="130" height="70" as="geometry" />
        </mxCell>
        <mxCell id="sKy68efztaYP0OvI4nIl-7" value="Analytics" style="strokeWidth=2;html=1;shape=mxgraph.flowchart.start_1;whiteSpace=wrap;fillColor=#0050ef;strokeColor=default;fontColor=#ffffff;fontSize=17;rounded=0;" vertex="1" parent="1">
          <mxGeometry x="644" y="1335" width="130" height="70" as="geometry" />
        </mxCell>
        <mxCell id="sKy68efztaYP0OvI4nIl-8" value="Shop" style="strokeWidth=2;html=1;shape=mxgraph.flowchart.start_1;whiteSpace=wrap;fillColor=#0050ef;strokeColor=default;fontColor=#ffffff;fontSize=17;rounded=0;" vertex="1" parent="1">
          <mxGeometry x="644" y="1470" width="130" height="70" as="geometry" />
        </mxCell>
        <mxCell id="sKy68efztaYP0OvI4nIl-9" value="" style="endArrow=classic;html=1;sketch=1;hachureGap=4;jiggle=2;curveFitting=1;fontFamily=Helvetica;fontSource=https://fonts.googleapis.com/css?family=Architects+Daughter;fontSize=17;fontColor=#ffffff;exitX=1;exitY=0.5;exitDx=0;exitDy=0;exitPerimeter=0;" edge="1" parent="1">
          <mxGeometry width="50" height="50" relative="1" as="geometry">
            <mxPoint x="180" y="1355" as="sourcePoint" />
            <mxPoint x="260" y="1355" as="targetPoint" />
            <Array as="points" />
          </mxGeometry>
        </mxCell>
        <mxCell id="sKy68efztaYP0OvI4nIl-10" value="" style="endArrow=classic;html=1;sketch=1;hachureGap=4;jiggle=2;curveFitting=1;fontFamily=Helvetica;fontSource=https://fonts.googleapis.com/css?family=Architects+Daughter;fontSize=17;fontColor=#ffffff;exitX=1;exitY=0.5;exitDx=0;exitDy=0;exitPerimeter=0;" edge="1" parent="1">
          <mxGeometry width="50" height="50" relative="1" as="geometry">
            <mxPoint x="180" y="1385" as="sourcePoint" />
            <mxPoint x="260" y="1385" as="targetPoint" />
            <Array as="points" />
          </mxGeometry>
        </mxCell>
        <mxCell id="sKy68efztaYP0OvI4nIl-11" value="" style="endArrow=classic;html=1;sketch=1;hachureGap=4;jiggle=2;curveFitting=1;fontFamily=Helvetica;fontSource=https://fonts.googleapis.com/css?family=Architects+Daughter;fontSize=17;fontColor=#ffffff;exitX=1;exitY=0.5;exitDx=0;exitDy=0;exitPerimeter=0;" edge="1" parent="1">
          <mxGeometry width="50" height="50" relative="1" as="geometry">
            <mxPoint x="187" y="1369" as="sourcePoint" />
            <mxPoint x="251" y="1369" as="targetPoint" />
            <Array as="points" />
          </mxGeometry>
        </mxCell>
        <mxCell id="sKy68efztaYP0OvI4nIl-12" value="" style="endArrow=classic;html=1;sketch=1;hachureGap=4;jiggle=2;curveFitting=1;fontFamily=Helvetica;fontSource=https://fonts.googleapis.com/css?family=Architects+Daughter;fontSize=17;fontColor=#ffffff;exitX=1;exitY=0.5;exitDx=0;exitDy=0;exitPerimeter=0;" edge="1" parent="1">
          <mxGeometry width="50" height="50" relative="1" as="geometry">
            <mxPoint x="554" y="1225" as="sourcePoint" />
            <mxPoint x="644" y="1225" as="targetPoint" />
          </mxGeometry>
        </mxCell>
        <mxCell id="sKy68efztaYP0OvI4nIl-13" value="" style="endArrow=classic;html=1;sketch=1;hachureGap=4;jiggle=2;curveFitting=1;fontFamily=Helvetica;fontSource=https://fonts.googleapis.com/css?family=Architects+Daughter;fontSize=17;fontColor=#ffffff;exitX=1;exitY=0.5;exitDx=0;exitDy=0;exitPerimeter=0;" edge="1" parent="1">
          <mxGeometry width="50" height="50" relative="1" as="geometry">
            <mxPoint x="554" y="1355" as="sourcePoint" />
            <mxPoint x="644" y="1355" as="targetPoint" />
          </mxGeometry>
        </mxCell>
        <mxCell id="sKy68efztaYP0OvI4nIl-14" value="" style="endArrow=classic;html=1;sketch=1;hachureGap=4;jiggle=2;curveFitting=1;fontFamily=Helvetica;fontSource=https://fonts.googleapis.com/css?family=Architects+Daughter;fontSize=17;fontColor=#ffffff;exitX=1;exitY=0.5;exitDx=0;exitDy=0;exitPerimeter=0;" edge="1" parent="1">
          <mxGeometry width="50" height="50" relative="1" as="geometry">
            <mxPoint x="554" y="1385" as="sourcePoint" />
            <mxPoint x="644" y="1385" as="targetPoint" />
          </mxGeometry>
        </mxCell>
        <mxCell id="sKy68efztaYP0OvI4nIl-15" value="" style="endArrow=classic;html=1;sketch=1;hachureGap=4;jiggle=2;curveFitting=1;fontFamily=Helvetica;fontSource=https://fonts.googleapis.com/css?family=Architects+Daughter;fontSize=17;fontColor=#ffffff;exitX=1;exitY=0.5;exitDx=0;exitDy=0;exitPerimeter=0;" edge="1" parent="1">
          <mxGeometry width="50" height="50" relative="1" as="geometry">
            <mxPoint x="554" y="1495" as="sourcePoint" />
            <mxPoint x="644" y="1495" as="targetPoint" />
          </mxGeometry>
        </mxCell>
        <mxCell id="sKy68efztaYP0OvI4nIl-16" value="" style="endArrow=classic;html=1;sketch=1;hachureGap=4;jiggle=2;curveFitting=1;fontFamily=Helvetica;fontSource=https://fonts.googleapis.com/css?family=Architects+Daughter;fontSize=17;fontColor=#ffffff;exitX=1;exitY=0.5;exitDx=0;exitDy=0;exitPerimeter=0;" edge="1" parent="1">
          <mxGeometry width="50" height="50" relative="1" as="geometry">
            <mxPoint x="554" y="1515" as="sourcePoint" />
            <mxPoint x="644" y="1515" as="targetPoint" />
          </mxGeometry>
        </mxCell>
        <mxCell id="sKy68efztaYP0OvI4nIl-17" value="" style="endArrow=classic;html=1;sketch=1;hachureGap=4;jiggle=2;curveFitting=1;fontFamily=Helvetica;fontSource=https://fonts.googleapis.com/css?family=Architects+Daughter;fontSize=17;fontColor=#ffffff;exitX=1;exitY=0.5;exitDx=0;exitDy=0;exitPerimeter=0;" edge="1" parent="1" source="sKy68efztaYP0OvI4nIl-2">
          <mxGeometry width="50" height="50" relative="1" as="geometry">
            <mxPoint x="363" y="1369.5" as="sourcePoint" />
            <mxPoint x="453" y="1369.5" as="targetPoint" />
          </mxGeometry>
        </mxCell>
        <mxCell id="sKy68efztaYP0OvI4nIl-18" value="" style="endArrow=classic;html=1;sketch=1;hachureGap=4;jiggle=2;curveFitting=1;fontFamily=Helvetica;fontSource=https://fonts.googleapis.com/css?family=Architects+Daughter;fontSize=17;fontColor=#ffffff;exitX=0.72;exitY=0.26;exitDx=0;exitDy=0;exitPerimeter=0;" edge="1" parent="1" source="sKy68efztaYP0OvI4nIl-2">
          <mxGeometry width="50" height="50" relative="1" as="geometry">
            <mxPoint x="344" y="1325" as="sourcePoint" />
            <mxPoint x="446" y="1235" as="targetPoint" />
          </mxGeometry>
        </mxCell>
        <mxCell id="sKy68efztaYP0OvI4nIl-19" value="" style="endArrow=classic;html=1;sketch=1;hachureGap=4;jiggle=2;curveFitting=1;fontFamily=Helvetica;fontSource=https://fonts.googleapis.com/css?family=Architects+Daughter;fontSize=17;fontColor=#ffffff;entryX=0.01;entryY=0.317;entryDx=0;entryDy=0;entryPerimeter=0;" edge="1" parent="1" target="sKy68efztaYP0OvI4nIl-5">
          <mxGeometry width="50" height="50" relative="1" as="geometry">
            <mxPoint x="324" y="1395" as="sourcePoint" />
            <mxPoint x="434" y="1429" as="targetPoint" />
          </mxGeometry>
        </mxCell>
        <mxCell id="sKy68efztaYP0OvI4nIl-20" value="" style="endArrow=classic;html=1;sketch=1;hachureGap=4;jiggle=2;curveFitting=1;fontFamily=Helvetica;fontSource=https://fonts.googleapis.com/css?family=Architects+Daughter;fontSize=17;fontColor=#ffffff;entryX=-0.05;entryY=0.75;entryDx=0;entryDy=0;entryPerimeter=0;" edge="1" parent="1" target="sKy68efztaYP0OvI4nIl-5">
          <mxGeometry width="50" height="50" relative="1" as="geometry">
            <mxPoint x="314" y="1415" as="sourcePoint" />
            <mxPoint x="439" y="1515" as="targetPoint" />
          </mxGeometry>
        </mxCell>
        <mxCell id="sKy68efztaYP0OvI4nIl-21" value="&lt;font style=&quot;font-size: 14px;&quot;&gt;*.europe.*&lt;/font&gt;" style="text;html=1;strokeColor=none;fillColor=none;align=center;verticalAlign=middle;whiteSpace=wrap;rounded=0;fontSize=20;fontFamily=Architects Daughter;" vertex="1" parent="1">
          <mxGeometry x="380" y="1340" width="60" height="30" as="geometry" />
        </mxCell>
        <mxCell id="sKy68efztaYP0OvI4nIl-22" value="&lt;font style=&quot;font-size: 14px;&quot;&gt;user.europe.payments&lt;/font&gt;" style="text;html=1;strokeColor=none;fillColor=none;align=center;verticalAlign=middle;whiteSpace=wrap;rounded=0;fontSize=20;fontFamily=Architects Daughter;" vertex="1" parent="1">
          <mxGeometry x="430" y="1255" width="114" height="30" as="geometry" />
        </mxCell>
        <mxCell id="sKy68efztaYP0OvI4nIl-23" value="&lt;font style=&quot;font-size: 14px;&quot;&gt;*.europe..purchases&lt;/font&gt;" style="text;html=1;strokeColor=none;fillColor=none;align=center;verticalAlign=middle;whiteSpace=wrap;rounded=0;fontSize=20;fontFamily=Architects Daughter;" vertex="1" parent="1">
          <mxGeometry x="448" y="1440" width="60" height="30" as="geometry" />
        </mxCell>
      </root>
    </mxGraphModel>
  </diagram>
</mxfile>
